<svg width="90" height="90" viewBox="0 0 90 90" fill="none" xmlns="http://www.w3.org/2000/svg">
<path d="M56.3238 45C56.3238 38.748 51.2336 33.6763 45 33.6763C38.7664 33.6763 33.6763 38.748 33.6763 45C33.6763 51.2521 38.7664 56.3238 45 56.3238C51.2336 56.3238 56.3238 51.2521 56.3238 45ZM45 51.8976C41.2009 51.8976 38.1025 48.7992 38.1025 45C38.1025 41.2009 41.2009 38.1025 45 38.1025C48.7992 38.1025 51.8976 41.2009 51.8976 45C51.8976 48.7992 48.7992 51.8976 45 51.8976Z" fill="white"/>
<path d="M28.6045 42.7869C27.3873 42.7869 26.3914 43.7828 26.3914 45C26.3914 46.2172 27.3873 47.2131 28.6045 47.2131C29.8217 47.2131 30.8176 46.2172 30.8176 45C30.8176 43.7828 29.8217 42.7869 28.6045 42.7869Z" fill="white"/>
<path d="M19.1434 45C19.1434 46.2172 20.1393 47.2131 21.3565 47.2131C22.5738 47.2131 23.5697 46.2172 23.5697 45C23.5697 43.7828 22.5738 42.7869 21.3565 42.7869C20.1393 42.7869 19.1434 43.7828 19.1434 45Z" fill="white"/>
<path d="M16.3217 45C16.3217 40.5 12.6516 36.83 8.15164 36.83C3.65164 36.83 0 40.5 0 45C0 49.5 3.67008 53.1701 8.17008 53.1701C12.6701 53.1701 16.3217 49.5 16.3217 45ZM8.17008 48.7439C6.10451 48.7439 4.42623 47.0656 4.42623 45C4.42623 42.9345 6.10451 41.2562 8.17008 41.2562C10.2357 41.2562 11.9139 42.9345 11.9139 45C11.9139 47.0656 10.2172 48.7439 8.17008 48.7439Z" fill="white"/>
<path d="M68.6434 47.2131C69.8657 47.2131 70.8565 46.2222 70.8565 45C70.8565 43.7777 69.8657 42.7869 68.6434 42.7869C67.4211 42.7869 66.4303 43.7777 66.4303 45C66.4303 46.2222 67.4211 47.2131 68.6434 47.2131Z" fill="white"/>
<path d="M61.3955 47.2131C62.6127 47.2131 63.6086 46.2172 63.6086 45C63.6086 43.7828 62.6127 42.7869 61.3955 42.7869C60.1783 42.7869 59.1824 43.7828 59.1824 45C59.1824 46.2172 60.1783 47.2131 61.3955 47.2131Z" fill="white"/>
<path d="M81.8299 36.83C77.3299 36.83 73.6599 40.5 73.6599 45C73.6599 49.5 77.3299 53.1701 81.8299 53.1701C86.3299 53.1701 90 49.5 90 45C90 40.5 86.3299 36.83 81.8299 36.83ZM81.8299 48.7439C79.7644 48.7439 78.0861 47.0656 78.0861 45C78.0861 42.9345 79.7644 41.2562 81.8299 41.2562C83.8955 41.2562 85.5738 42.9345 85.5738 45C85.5738 47.0656 83.8955 48.7439 81.8299 48.7439Z" fill="white"/>
<path d="M45 59.1824C43.7828 59.1824 42.7869 60.1783 42.7869 61.3955C42.7869 62.6127 43.7828 63.6086 45 63.6086C46.2172 63.6086 47.2131 62.6127 47.2131 61.3955C47.2131 60.1783 46.2172 59.1824 45 59.1824Z" fill="white"/>
<path d="M45 66.4303C43.7828 66.4303 42.7869 67.4262 42.7869 68.6434C42.7869 69.8606 43.7828 70.8565 45 70.8565C46.2172 70.8565 47.2131 69.8606 47.2131 68.6434C47.2131 67.4262 46.2172 66.4303 45 66.4303Z" fill="white"/>
<path d="M45 73.6782C40.5 73.6782 36.8299 77.3483 36.8299 81.8483C36.8299 86.3483 40.5 89.9999 45 89.9999C49.5 89.9999 53.1701 86.3299 53.1701 81.8299C53.1701 77.3299 49.5 73.6782 45 73.6782ZM45 85.5737C42.9344 85.5737 41.2561 83.8954 41.2561 81.8299C41.2561 79.7643 42.9344 78.086 45 78.086C47.0656 78.086 48.7438 79.7643 48.7438 81.8299C48.7438 83.8954 47.0656 85.5737 45 85.5737Z" fill="white"/>
<path d="M45 30.8176C46.2172 30.8176 47.2131 29.8217 47.2131 28.6045C47.2131 27.3873 46.2172 26.3914 45 26.3914C43.7828 26.3914 42.7869 27.3873 42.7869 28.6045C42.7869 29.8217 43.7828 30.8176 45 30.8176Z" fill="white"/>
<path d="M45 23.5697C46.2222 23.5697 47.2131 22.5788 47.2131 21.3565C47.2131 20.1343 46.2222 19.1434 45 19.1434C43.7777 19.1434 42.7869 20.1343 42.7869 21.3565C42.7869 22.5788 43.7777 23.5697 45 23.5697Z" fill="white"/>
<path d="M45 16.3217C49.5 16.3217 53.1701 12.6516 53.1701 8.15164C53.1701 3.65164 49.5 0 45 0C40.5 0 36.8299 3.67008 36.8299 8.17008C36.8299 12.6701 40.5 16.3217 45 16.3217ZM45 4.42623C47.0656 4.42623 48.7438 6.10451 48.7438 8.17008C48.7438 10.2357 47.0656 11.9139 45 11.9139C42.9344 11.9139 41.2561 10.2357 41.2561 8.17008C41.2561 6.10451 42.9344 4.42623 45 4.42623Z" fill="white"/>
<path d="M31.8504 55.0328C30.9836 55.8996 30.9836 57.3012 31.8504 58.168C32.7172 59.0348 34.1189 59.0348 34.9857 58.168C35.8525 57.3012 35.8525 55.8996 34.9857 55.0328C34.1004 54.166 32.6988 54.166 31.8504 55.0328Z" fill="white"/>
<path d="M28.291 63.9221C29.5133 63.9221 30.5041 62.9312 30.5041 61.709C30.5041 60.4867 29.5133 59.4958 28.291 59.4958C27.0687 59.4958 26.0779 60.4867 26.0779 61.709C26.0779 62.9312 27.0687 63.9221 28.291 63.9221Z" fill="white"/>
<path d="M13.1865 65.2684C9.99594 68.459 9.99594 73.6229 13.1865 76.8135C16.3771 80.004 21.541 80.004 24.7316 76.8135C27.9222 73.6229 27.9222 68.459 24.7316 65.2684C21.541 62.0962 16.3586 62.0962 13.1865 65.2684ZM21.5963 73.6967C20.1394 75.1536 17.7787 75.1536 16.3218 73.6967C14.8648 72.2397 14.8648 69.879 16.3218 68.4221C17.7787 66.9651 20.1394 66.9651 21.5963 68.4221C23.0533 69.8606 23.0533 72.2397 21.5963 73.6967Z" fill="white"/>
<path d="M61.709 30.5041C62.9313 30.5041 63.9221 29.5133 63.9221 28.291C63.9221 27.0687 62.9313 26.0779 61.709 26.0779C60.4868 26.0779 59.4959 27.0687 59.4959 28.291C59.4959 29.5133 60.4868 30.5041 61.709 30.5041Z" fill="white"/>
<path d="M56.6004 35.6126C57.8227 35.6126 58.8136 34.6218 58.8136 33.3995C58.8136 32.1772 57.8227 31.1864 56.6004 31.1864C55.3782 31.1864 54.3873 32.1772 54.3873 33.3995C54.3873 34.6218 55.3782 35.6126 56.6004 35.6126Z" fill="white"/>
<path d="M76.8136 24.7315C80.0041 21.5409 80.0041 16.377 76.8136 13.1864C73.623 9.99581 68.4591 9.99581 65.2685 13.1864C62.0779 16.377 62.0779 21.5409 65.2685 24.7315C68.4591 27.922 73.6414 27.9036 76.8136 24.7315ZM68.4037 16.3032C69.8607 14.8462 72.2213 14.8462 73.6783 16.3032C75.1353 17.7602 75.1353 20.1208 73.6783 21.5778C72.2213 23.0347 69.8607 23.0347 68.4037 21.5778C66.9468 20.1393 66.9468 17.7602 68.4037 16.3032Z" fill="white"/>
<path d="M61.709 63.9221C62.9313 63.9221 63.9221 62.9312 63.9221 61.709C63.9221 60.4867 62.9313 59.4958 61.709 59.4958C60.4868 59.4958 59.4959 60.4867 59.4959 61.709C59.4959 62.9312 60.4868 63.9221 61.709 63.9221Z" fill="white"/>
<path d="M55.0328 55.0328C54.166 55.8996 54.166 57.3012 55.0328 58.168C55.8996 59.0348 57.3012 59.0348 58.168 58.168C59.0348 57.3012 59.0348 55.8996 58.168 55.0328C57.3012 54.166 55.8996 54.166 55.0328 55.0328Z" fill="white"/>
<path d="M65.2685 65.2684C62.0779 68.459 62.0779 73.6229 65.2685 76.8135C68.4591 80.004 73.623 80.004 76.8136 76.8135C80.0041 73.6229 80.0041 68.459 76.8136 65.2684C73.6414 62.0962 68.4591 62.0962 65.2685 65.2684ZM73.6968 73.6967C72.2398 75.1536 69.8791 75.1536 68.4222 73.6967C66.9652 72.2397 66.9652 69.879 68.4222 68.4221C69.8791 66.9651 72.2398 66.9651 73.6968 68.4221C75.1537 69.8606 75.1537 72.2397 73.6968 73.6967Z" fill="white"/>
<path d="M33.3996 35.6126C34.6218 35.6126 35.6127 34.6218 35.6127 33.3995C35.6127 32.1772 34.6218 31.1864 33.3996 31.1864C32.1773 31.1864 31.1865 32.1772 31.1865 33.3995C31.1865 34.6218 32.1773 35.6126 33.3996 35.6126Z" fill="white"/>
<path d="M28.291 30.5041C29.5133 30.5041 30.5041 29.5133 30.5041 28.291C30.5041 27.0687 29.5133 26.0779 28.291 26.0779C27.0687 26.0779 26.0779 27.0687 26.0779 28.291C26.0779 29.5133 27.0687 30.5041 28.291 30.5041Z" fill="white"/>
<path d="M24.7316 24.7315C27.9222 21.5409 27.9222 16.377 24.7316 13.1864C21.541 9.99581 16.3771 9.99581 13.1865 13.1864C9.99594 16.377 9.99594 21.5409 13.1865 24.7315C16.3586 27.9036 21.541 27.9036 24.7316 24.7315ZM16.3033 16.3032C17.7603 14.8462 20.1209 14.8462 21.5779 16.3032C23.0349 17.7602 23.0349 20.1208 21.5779 21.5778C20.1209 23.0347 17.7603 23.0347 16.3033 21.5778C14.8463 20.1393 14.8463 17.7602 16.3033 16.3032Z" fill="white"/>
</svg>
