<svg width="70" height="80" viewBox="0 0 70 80" fill="none" xmlns="http://www.w3.org/2000/svg">
<path d="M69.0289 19.6128L36.4569 0.273664C35.8479 -0.0884304 35.0908 -0.0884304 34.4818 0.257205L1.46535 18.7899C0.856376 19.1355 0.461364 19.7774 0.461364 20.4851L0.000515988 58.3569C-0.0159429 59.0647 0.362611 59.7066 0.955129 60.0687L33.6918 79.7041C34.0045 79.8851 34.3501 79.9839 34.7122 79.9839C35.0414 79.9839 35.3706 79.9016 35.6833 79.737L68.7162 61.2043C69.3417 60.8587 69.7202 60.2003 69.7202 59.4926L70 21.3245C70 20.6168 69.6379 19.9584 69.0289 19.6128ZM33.017 74.7006L3.95064 57.2707L4.36211 24.0567L33.017 40.9764V74.7006ZM35.0249 37.5694L6.2878 20.6168L35.42 4.25671L64.1242 21.2916L35.0249 37.5694ZM65.7701 58.3076L36.9671 74.4702V40.9929L66.017 24.748L65.7701 58.3076Z" fill="white"/>
<path d="M21.7755 49.2223C22.1047 49.2223 22.4339 49.14 22.7466 48.9754C23.7012 48.4323 24.0304 47.2308 23.5037 46.2926C22.977 45.338 21.7755 45.0088 20.8209 45.5355C19.8663 46.0622 19.5371 47.2637 20.0638 48.2183C20.4259 48.8602 21.0842 49.2223 21.7755 49.2223Z" fill="white"/>
<path d="M15.1756 52.9419C15.5048 52.9419 15.8339 52.8596 16.1467 52.695C17.1013 52.1683 17.4305 50.9504 16.9038 50.0122C16.3771 49.0576 15.1591 48.7285 14.221 49.2551C13.2664 49.7818 12.9372 50.9998 13.4639 51.9379C13.8095 52.5798 14.4843 52.9419 15.1756 52.9419Z" fill="white"/>
<path d="M28.392 45.5189C28.7211 45.5189 29.0503 45.4366 29.363 45.2721C30.3177 44.7454 30.6468 43.5274 30.1201 42.5893C29.5935 41.6347 28.3755 41.3055 27.4374 41.8322C26.4827 42.3588 26.1536 43.5768 26.6802 44.515C27.0259 45.1569 27.7007 45.5189 28.392 45.5189Z" fill="white"/>
<path d="M8.57556 56.6452C8.90474 56.6452 9.23391 56.5629 9.54663 56.3983C10.5012 55.8551 10.8304 54.6536 10.3037 53.7155C9.7606 52.7609 8.5591 52.4317 7.62095 52.9584C6.66633 53.4851 6.33716 54.703 6.86384 55.6412C7.20947 56.2831 7.88429 56.6452 8.57556 56.6452Z" fill="white"/>
<path d="M53.5247 53.1395C53.8374 53.3205 54.183 53.4193 54.5286 53.4193C55.2035 53.4193 55.8618 53.0736 56.2239 52.4482C56.7835 51.51 56.4708 50.2921 55.5326 49.7489C54.5945 49.1893 53.3765 49.5021 52.8169 50.4402C52.2738 51.3784 52.5865 52.5799 53.5247 53.1395Z" fill="white"/>
<path d="M47.007 49.2716C47.3197 49.4526 47.6654 49.5513 48.011 49.5513C48.6858 49.5513 49.3442 49.2057 49.7063 48.5803C50.2659 47.6421 49.9531 46.4242 49.015 45.881C48.0768 45.3214 46.8589 45.6341 46.3157 46.5723C45.7726 47.5105 46.0688 48.712 47.007 49.2716Z" fill="white"/>
<path d="M40.5058 45.4039C40.8185 45.5849 41.1641 45.6837 41.5098 45.6837C42.1846 45.6837 42.8429 45.338 43.205 44.7126C43.7646 43.7744 43.4519 42.5565 42.5137 42.0134C41.5756 41.4538 40.3576 41.7665 39.8145 42.7046C39.2549 43.6428 39.5676 44.8443 40.5058 45.4039Z" fill="white"/>
<path d="M60.0425 57.0072C60.3552 57.1883 60.7008 57.287 61.0464 57.287C61.7213 57.287 62.3796 56.9414 62.7417 56.316C63.3013 55.3778 62.9886 54.1599 62.0504 53.6003C61.1123 53.0407 59.8943 53.3534 59.3512 54.2915C58.7916 55.2297 59.1043 56.4476 60.0425 57.0072Z" fill="white"/>
<path d="M35.206 22.7235C34.1197 22.707 33.2145 23.5794 33.2145 24.6821C33.198 25.7684 34.0703 26.6736 35.1566 26.6736C35.1566 26.6736 35.1731 26.6736 35.1895 26.6736C36.2758 26.6736 37.1481 25.8013 37.1646 24.715C37.1646 23.6287 36.2923 22.7235 35.206 22.7235Z" fill="white"/>
<path d="M35.2883 15.136C34.202 15.1195 33.2967 15.9918 33.2967 17.0781C33.2803 18.1644 34.1526 19.0696 35.2553 19.0861H35.2718C36.3581 19.0861 37.2304 18.2138 37.2469 17.1275C37.2633 16.0577 36.391 15.1524 35.2883 15.136Z" fill="white"/>
<path d="M35.3376 11.515C35.3376 11.515 35.3541 11.515 35.3706 11.515C36.4568 11.515 37.3292 10.6427 37.3456 9.55645C37.3621 8.47016 36.4898 7.56493 35.387 7.56493C34.3007 7.54847 33.3955 8.42079 33.3955 9.50707C33.379 10.6098 34.2514 11.4986 35.3376 11.515Z" fill="white"/>
<path d="M35.1073 30.2945C34.021 30.2781 33.1158 31.1504 33.1158 32.2367C33.0993 33.323 33.9716 34.2282 35.0744 34.2447H35.0908C36.1771 34.2447 37.0494 33.3723 37.0659 32.2861C37.0659 31.1998 36.1936 30.311 35.1073 30.2945Z" fill="white"/>
</svg>
