<svg width="63" height="85" viewBox="0 0 63 85" fill="none" xmlns="http://www.w3.org/2000/svg">
<path d="M53.5722 43.509H40.8251V34.2766C40.8251 29.9833 39.576 26.8593 37.0951 25.0094C33.1939 22.0948 27.8897 23.7354 27.6673 23.8226C26.8118 24.1019 26.23 24.9047 26.23 25.8122V36.7549C26.23 40.1407 24.6388 43.0029 21.5076 45.3066C19.4715 46.8075 17.384 47.5929 16.6483 47.8372C16.1008 46.982 15.1597 46.4236 14.0817 46.4236H3.06274C1.36882 46.4236 0 47.8372 0 49.5476V80.1941C0 81.9219 1.38593 83.3181 3.06274 83.3181H14.0817C14.8346 83.3181 15.519 83.0388 16.0665 82.5851C17.692 84.0685 19.8308 84.9586 22.1407 84.9586H48.4049C51.0057 84.9586 53.3156 84.3129 55.0779 83.1087C57.3194 81.5728 58.7224 79.0946 59.0989 75.9706L62.5551 53.614C62.6065 53.2824 62.6236 52.9682 62.6236 52.6541C62.4354 47.6278 58.3631 43.509 53.5722 43.509ZM13.038 79.1644H4.08935V50.6296H13.038V79.1644ZM58.5 52.9857L55.0437 75.3772C55.0437 75.3947 55.0437 75.4296 55.0266 75.447C54.8726 76.7734 54.3935 80.7875 48.4049 80.7875H22.1407C19.7452 80.7875 17.692 79.0422 17.2471 76.6512C17.23 76.5465 17.1958 76.4418 17.1616 76.3371V52.0433C17.2643 52.0258 17.384 52.0084 17.4867 51.9734C17.6236 51.9385 20.7034 51.0485 23.8004 48.7971C28.0779 45.708 30.3365 41.5369 30.3365 36.7549V27.5225C31.5684 27.3829 33.365 27.4004 34.6654 28.3777C36.0171 29.39 36.7186 31.3795 36.7186 34.2592V45.5858C36.7186 46.7377 37.6426 47.6801 38.7719 47.6801H53.5722C56.1559 47.6801 58.4144 50.0362 58.5171 52.8286C58.5171 52.8461 58.5171 52.8984 58.5 52.9857Z" fill="white"/>
<path d="M33.382 17.7317C34.5113 17.7317 35.4353 16.7893 35.4353 15.6374V2.0943C35.4353 0.942433 34.5113 0 33.382 0C32.2528 0 31.3288 0.942433 31.3288 2.0943V15.62C31.3288 16.7893 32.2528 17.7317 33.382 17.7317Z" fill="white"/>
<path d="M45.6331 32.514C45.6331 33.6658 46.557 34.6083 47.6863 34.6083H60.9467C62.076 34.6083 63 33.6658 63 32.514C63 31.3621 62.076 30.4197 60.9467 30.4197H47.6863C46.557 30.4197 45.6331 31.3621 45.6331 32.514Z" fill="white"/>
<path d="M5.80042 34.6083H19.0609C20.1902 34.6083 21.1141 33.6658 21.1141 32.514C21.1141 31.3621 20.1902 30.4197 19.0609 30.4197H5.80042C4.67115 30.4197 3.74719 31.3621 3.74719 32.514C3.74719 33.6658 4.67115 34.6083 5.80042 34.6083Z" fill="white"/>
<path d="M11.4638 11.9549C12.0113 11.9549 12.5417 11.7281 12.9181 11.3441C13.2946 10.9602 13.517 10.4191 13.517 9.86065C13.517 9.30217 13.2946 8.76115 12.9181 8.37719C12.5417 7.99324 12.0113 7.76636 11.4638 7.76636C10.9162 7.76636 10.3858 7.99324 10.0094 8.37719C9.63296 8.76115 9.41052 9.30217 9.41052 9.86065C9.41052 10.4191 9.63296 10.9602 10.0094 11.3441C10.3858 11.7455 10.9162 11.9549 11.4638 11.9549Z" fill="white"/>
<path d="M16.1521 16.7369C16.6825 16.7369 17.1958 16.5275 17.6065 16.1261C18.4107 15.3058 18.4107 13.9794 17.6065 13.1591C16.8023 12.3389 15.5019 12.3389 14.6977 13.1591C13.8936 13.9794 13.8936 15.3058 14.6977 16.1261C15.0913 16.5449 15.6217 16.7369 16.1521 16.7369Z" fill="white"/>
<path d="M20.8403 21.5362C21.3879 21.5362 21.9183 21.3094 22.2947 20.9254C22.6711 20.5415 22.8936 20.0004 22.8936 19.442C22.8936 18.8835 22.6711 18.3424 22.2947 17.9585C21.9183 17.5745 21.3879 17.3477 20.8403 17.3477C20.2928 17.3477 19.7624 17.5745 19.386 17.9585C19.0095 18.3424 18.7871 18.8835 18.7871 19.442C18.7871 20.0004 19.0095 20.5415 19.386 20.9254C19.7624 21.3094 20.2928 21.5362 20.8403 21.5362Z" fill="white"/>
<path d="M53.8975 12.9322C54.445 12.9322 54.9754 12.7054 55.3518 12.3214C55.7283 11.9375 55.9507 11.3964 55.9507 10.8379C55.9507 10.2795 55.7283 9.73844 55.3518 9.35449C54.9754 8.97053 54.445 8.74365 53.8975 8.74365C53.3499 8.74365 52.8195 8.97053 52.4431 9.35449C52.0667 9.73844 51.8442 10.2795 51.8442 10.8379C51.8442 11.3964 52.0667 11.9375 52.4431 12.3214C52.8195 12.7228 53.3499 12.9322 53.8975 12.9322Z" fill="white"/>
<path d="M49.2092 17.7318C49.7397 17.7318 50.253 17.5223 50.6636 17.1209C51.4678 16.3007 51.4678 14.9743 50.6636 14.154C49.8594 13.3338 48.5591 13.3338 47.7549 14.154C46.9507 14.9743 46.9507 16.3007 47.7549 17.1209C48.1484 17.5223 48.6788 17.7318 49.2092 17.7318Z" fill="white"/>
<path d="M44.521 22.5135C45.0685 22.5135 45.599 22.2867 45.9754 21.9027C46.3518 21.5188 46.5742 20.9777 46.5742 20.4192C46.5742 19.8608 46.3518 19.3197 45.9754 18.9358C45.599 18.5518 45.0685 18.325 44.521 18.325C43.9735 18.325 43.4431 18.5518 43.0666 18.9358C42.6902 19.3197 42.4678 19.8608 42.4678 20.4192C42.4678 20.9777 42.6902 21.5188 43.0666 21.9027C43.4431 22.2867 43.9735 22.5135 44.521 22.5135Z" fill="white"/>
</svg>
