<svg width="75" height="90" viewBox="0 0 75 90" fill="none" xmlns="http://www.w3.org/2000/svg">
<path d="M69.4553 31.0332H54.6642C53.3324 31.0332 52.2428 32.0415 52.2428 33.2739C52.2428 34.5062 53.3324 35.5145 54.6642 35.5145H69.2131V73.7178H4.8429V35.5145H19.4321C20.7639 35.5145 21.8536 34.5062 21.8536 33.2739C21.8536 32.0415 20.7639 31.0332 19.4321 31.0332H4.60076C2.05823 31.0332 0 32.9378 0 35.2905V73.9419C0 76.2946 2.05823 78.1992 4.60076 78.1992H34.6066V85.5187H22.2168C20.885 85.5187 19.7954 86.527 19.7954 87.7593C19.7954 88.9917 20.885 90 22.2168 90H51.819C53.1508 90 54.2405 88.9917 54.2405 87.7593C54.2405 86.527 53.1508 85.5187 51.819 85.5187H39.4495V78.1992H69.4553C71.9978 78.1992 74.056 76.2946 74.056 73.9419V35.3091C74.056 32.9564 71.9978 31.0332 69.4553 31.0332Z" fill="white"/>
<path d="M37.028 60.5353C36.3823 60.5353 35.7568 60.778 35.3128 61.1888C34.8689 61.5996 34.6066 62.1784 34.6066 62.7759C34.6066 63.3735 34.8689 63.9523 35.3128 64.3631C35.7568 64.7739 36.3823 65.0166 37.028 65.0166C37.6737 65.0166 38.2993 64.7739 38.7432 64.3631C39.1871 63.9523 39.4495 63.3735 39.4495 62.7759C39.4495 62.1784 39.1871 61.5996 38.7432 61.1888C38.2993 60.778 37.6737 60.5353 37.028 60.5353Z" fill="white"/>
<path d="M37.028 43.0581C35.6962 43.0581 34.6066 44.0664 34.6066 45.2988C34.6066 46.5311 35.6962 47.5394 37.028 47.5394C38.3598 47.5394 39.4495 46.5311 39.4495 45.2988C39.4495 44.0664 38.3598 43.0581 37.028 43.0581Z" fill="white"/>
<path d="M37.028 16.8611C35.6962 16.8611 34.6066 17.8694 34.6066 19.1017C34.6066 20.3341 35.6962 21.3424 37.028 21.3424C38.3598 21.3424 39.4495 20.3341 39.4495 19.1017C39.4495 17.8507 38.3598 16.8611 37.028 16.8611Z" fill="white"/>
<path d="M37.028 25.5995C35.6962 25.5995 34.6066 26.6078 34.6066 27.8402C34.6066 29.0725 35.6962 30.0808 37.028 30.0808C38.3598 30.0808 39.4495 29.0725 39.4495 27.8402C39.4495 26.5891 38.3598 25.5995 37.028 25.5995Z" fill="white"/>
<path d="M37.028 51.7966C35.6962 51.7966 34.6066 52.8049 34.6066 54.0373C34.6066 55.2697 35.6962 56.278 37.028 56.278C38.3598 56.278 39.4495 55.2697 39.4495 54.0373C39.4495 52.8049 38.3598 51.7966 37.028 51.7966Z" fill="white"/>
<path d="M37.028 34.3383C35.6962 34.3383 34.6066 35.3466 34.6066 36.5789C34.6066 37.8113 35.6962 38.8196 37.028 38.8196C38.3598 38.8196 39.4495 37.8113 39.4495 36.5789C39.4495 35.3279 38.3598 34.3383 37.028 34.3383Z" fill="white"/>
<path d="M36.8666 12.6037C36.9272 12.6037 36.9675 12.6037 37.028 12.6037C40.7006 12.6037 43.7476 9.84025 43.8283 6.46058C43.8686 4.78008 43.2027 3.17427 41.9517 1.96058C40.7006 0.746888 39.0056 0.0560166 37.1895 0C37.1289 0 37.0886 0 37.028 0C33.3555 0 30.3085 2.76349 30.2278 6.14315C30.1874 7.82365 30.8533 9.42946 32.1044 10.6432C33.3555 11.8568 35.0505 12.5664 36.8666 12.6037ZM37.028 4.48133H37.0684C37.5931 4.5 38.0773 4.68672 38.4406 5.04149C38.8038 5.39626 39.0056 5.86307 38.9854 6.34855C38.9652 7.3195 38.0773 8.12241 37.028 8.12241H36.9877C36.463 8.10373 35.9788 7.91701 35.6155 7.56224C35.2523 7.20747 35.0505 6.74066 35.0707 6.25519C35.0909 5.28423 35.9788 4.48133 37.028 4.48133Z" fill="white"/>
<path d="M46.7341 55.5124C48.0659 55.5124 49.1555 54.5041 49.1555 53.2718V21.8838C49.1555 20.6141 50.2855 19.5685 51.6577 19.5685H56.4804C57.449 21.9398 59.9511 23.6203 62.8367 23.6203C66.59 23.6203 69.6369 20.8008 69.6369 17.3278C69.6369 13.8548 66.6101 11.0353 62.8569 11.0353C59.9511 11.0353 57.4692 12.7158 56.5006 15.0871H51.6779C47.6219 15.0871 44.3328 18.1307 44.3328 21.8838V53.2718C44.3126 54.5228 45.4023 55.5124 46.7341 55.5124ZM62.8569 15.5166C63.9465 15.5166 64.8142 16.3382 64.8142 17.3278C64.8142 18.3174 63.9264 19.139 62.8569 19.139C61.7672 19.139 60.8995 18.3174 60.8995 17.3278C60.8995 16.3382 61.7672 15.5166 62.8569 15.5166Z" fill="white"/>
<path d="M11.1992 23.639C14.1049 23.639 16.5869 21.9585 17.5555 19.5871H22.3782C23.7503 19.5871 24.8804 20.6328 24.8804 21.9025V53.2905C24.8804 54.5228 25.97 55.5311 27.3018 55.5311C28.6336 55.5311 29.7233 54.5228 29.7233 53.2905V21.8838C29.7233 18.1307 26.4341 15.0871 22.3782 15.0871H17.5555C16.5869 12.7158 14.0847 11.0353 11.1992 11.0353C7.44592 11.0353 4.39893 13.8548 4.39893 17.3278C4.39893 20.8008 7.44592 23.639 11.1992 23.639ZM11.1992 15.5166C12.2888 15.5166 13.1565 16.3382 13.1565 17.3278C13.1565 18.3174 12.2686 19.139 11.1992 19.139C10.1297 19.139 9.24183 18.3174 9.24183 17.3278C9.24183 16.3382 10.1297 15.5166 11.1992 15.5166Z" fill="white"/>
</svg>
