<svg width="123" height="107" viewBox="0 0 123 107" fill="none" xmlns="http://www.w3.org/2000/svg">
<path d="M60.8966 18.391H60.9469C63.7623 18.3691 66.427 17.4069 68.4129 15.6575C70.3988 13.908 71.4797 11.59 71.4546 9.14081C71.4294 4.08931 66.6783 0 60.8966 0H60.8463C58.0309 0.021868 55.3663 0.984058 53.3804 2.73349C51.3945 4.48293 50.3135 6.80093 50.3387 9.25014C50.3638 14.3016 55.1149 18.391 60.8966 18.391ZM57.679 6.42918C58.5337 5.68567 59.6649 5.27018 60.8715 5.24831H60.8966C63.3853 5.24831 65.4214 6.99775 65.4214 9.16267C65.4214 10.2123 64.969 11.2183 64.1143 11.9618C63.2596 12.7053 62.1284 13.1208 60.9218 13.1426H60.8966C58.408 13.1426 56.3718 11.3932 56.3718 9.22828C56.3718 8.17862 56.8243 7.17269 57.679 6.42918Z" fill="white"/>
<path d="M75.0241 27.2474C71.8567 22.7208 67.0303 20.3372 61.0977 20.3372C61.0726 20.3372 61.0223 20.3372 60.9972 20.3372C55.0143 20.359 50.1878 22.8082 47.0456 27.3786C44.7832 30.6807 43.3503 35.1418 42.7973 40.6306C42.6465 42.0739 43.8782 43.3423 45.5373 43.4735C45.6379 43.4735 45.7133 43.4735 45.7887 43.4735C47.3473 43.4735 48.6544 42.4457 48.7801 41.068C49.8108 30.8119 53.9083 25.6073 60.9972 25.5636C61.0223 25.5636 61.0474 25.5636 61.0726 25.5636C68.1112 25.5636 72.2589 30.7463 73.4153 40.9586C73.5661 42.4019 75.0493 43.4516 76.7084 43.3204C78.3675 43.1892 79.5741 41.899 79.4233 40.4557C78.7948 34.9668 77.3117 30.5276 75.0241 27.2474Z" fill="white"/>
<path d="M104.461 81.1739H104.511C107.326 81.152 109.991 80.1899 111.977 78.4404C113.963 76.691 115.044 74.373 115.044 71.9238C115.019 66.8723 110.267 62.783 104.486 62.783H104.435C98.6035 62.8048 93.9027 66.9597 93.9278 72.0331C93.9278 77.0627 98.6789 81.1739 104.461 81.1739ZM104.435 68.0313H104.461C106.949 68.0313 108.985 69.7807 108.985 71.9456C108.985 72.9953 108.533 74.0012 107.678 74.7447C106.824 75.4882 105.692 75.9037 104.486 75.9256H104.461C101.972 75.9256 99.9358 74.1762 99.9358 72.0112C99.9107 69.8244 101.947 68.0531 104.435 68.0313Z" fill="white"/>
<path d="M122.987 103.217C122.384 97.7278 120.901 93.2886 118.588 90.0084C115.421 85.4818 110.594 83.0981 104.662 83.0981C104.637 83.0981 104.586 83.0981 104.561 83.0981C98.5784 83.12 93.7519 85.5692 90.6097 90.1396C88.3473 93.4417 86.9144 97.9028 86.3614 103.392C86.2105 104.835 87.4423 106.103 89.1014 106.234C89.202 106.234 89.2774 106.234 89.3528 106.234C90.9113 106.234 92.2185 105.207 92.3442 103.829C93.3749 93.5729 97.4724 88.3683 104.561 88.3246C104.586 88.3246 104.612 88.3246 104.637 88.3246C111.675 88.3246 115.823 93.5073 116.979 103.72C117.13 105.163 118.613 106.213 120.272 106.081C121.932 105.95 123.138 104.66 122.987 103.217Z" fill="white"/>
<path d="M61.1479 49.0716C61.9523 49.0716 62.7065 48.7873 63.2846 48.3062C63.8377 47.8251 64.1645 47.1472 64.1645 46.4474C64.1645 45.7476 63.8377 45.0697 63.2846 44.5886C62.7316 44.1075 61.9523 43.8232 61.1479 43.8232C60.3435 43.8232 59.5642 44.1075 59.0112 44.5886C58.4581 45.0697 58.1313 45.7476 58.1313 46.4474C58.1313 47.1472 58.4581 47.8251 59.0112 48.3062C59.5642 48.7873 60.3435 49.0716 61.1479 49.0716Z" fill="white"/>
<path d="M61.1983 60.4212C61.2234 60.4212 61.2234 60.4212 61.1983 60.4212C62.8825 60.4212 64.2148 59.2403 64.2148 57.7752C64.2148 56.3319 62.8574 55.151 61.1732 55.1729C59.5141 55.1729 58.1566 56.3538 58.1817 57.8189C58.2069 59.2403 59.5643 60.4212 61.1983 60.4212Z" fill="white"/>
<path d="M61.2736 66.5005C60.4692 66.5005 59.6899 66.7848 59.1369 67.2659C58.5839 67.747 58.2571 68.4249 58.2571 69.1246C58.2571 69.8244 58.5839 70.5023 59.1369 70.9834C59.6899 71.4645 60.4692 71.7488 61.2736 71.7488C62.078 71.7488 62.8573 71.4645 63.4104 70.9834C63.9634 70.5023 64.2902 69.8244 64.2902 69.1246C64.2902 68.4249 63.9634 67.747 63.4104 67.2659C62.8573 66.7848 62.078 66.5005 61.2736 66.5005Z" fill="white"/>
<path d="M74.0939 72.4484C72.6359 71.7268 70.8008 72.1642 69.9712 73.4325C69.1417 74.7008 69.6445 76.2972 71.1025 77.0188C71.5801 77.2594 72.0828 77.3687 72.5856 77.3687C73.6414 77.3687 74.6469 76.8876 75.1999 76.0348C76.0546 74.7664 75.5519 73.1701 74.0939 72.4484Z" fill="white"/>
<path d="M86.0596 78.4841C85.5066 78.003 84.7273 77.7188 83.9229 77.7188C83.1185 77.7188 82.3392 78.003 81.7862 78.4841C81.2332 78.9652 80.9064 79.6431 80.9064 80.3429C80.9064 81.0427 81.2332 81.7206 81.7862 82.2017C82.3392 82.6828 83.1185 82.9671 83.9229 82.9671C84.7022 82.9671 85.5066 82.6828 86.0596 82.2017C86.6127 81.7206 86.9395 81.0427 86.9395 80.3429C86.9395 79.6431 86.6127 78.9871 86.0596 78.4841Z" fill="white"/>
<path d="M48.5035 72.5797C47.0707 73.3232 46.5931 74.9196 47.4226 76.1661C47.9756 76.9971 49.0063 77.4563 50.037 77.4563C50.5649 77.4563 51.0676 77.3469 51.5452 77.1064C52.9781 76.3629 53.4557 74.7665 52.6262 73.52C51.7966 72.2736 49.9615 71.8362 48.5035 72.5797Z" fill="white"/>
<path d="M38.7752 77.9373C37.9959 77.9373 37.1915 78.2215 36.6385 78.7026C36.0855 79.1837 35.7587 79.8616 35.7587 80.5614C35.7587 81.2612 36.0855 81.9391 36.6385 82.4202C37.1915 82.9013 37.9708 83.1856 38.7752 83.1856C39.5796 83.1856 40.3589 82.9013 40.9119 82.4202C41.465 81.9391 41.7918 81.2612 41.7918 80.5614C41.7918 79.8616 41.465 79.1837 40.9119 78.7026C40.3589 78.2215 39.5796 77.9373 38.7752 77.9373Z" fill="white"/>
<path d="M18.137 81.5675H18.1873C21.0027 81.5456 23.6673 80.5834 25.6532 78.834C27.6391 77.0845 28.72 74.7665 28.6949 72.3173C28.6698 67.2658 23.9187 63.1765 18.137 63.1765H18.0867C15.2712 63.1984 12.6066 64.1606 10.6207 65.91C8.63484 67.6594 7.5539 69.9774 7.57904 72.4267C7.60418 77.4782 12.3301 81.5675 18.137 81.5675ZM18.137 68.5123C20.5754 68.5123 22.5613 70.2399 22.5864 72.3611C22.5864 73.3889 22.1339 74.3729 21.3044 75.0946C20.4748 75.8162 19.3436 76.2317 18.1621 76.2317H18.137C15.6986 76.2317 13.7127 74.5041 13.6876 72.3829C13.6876 70.2617 15.6483 68.5342 18.137 68.5123Z" fill="white"/>
<path d="M32.2393 90.4239C29.0719 85.8973 24.2455 83.5137 18.3129 83.5137C18.2878 83.5137 18.2375 83.5137 18.2124 83.5137C12.2295 83.5355 7.40305 85.9847 4.26081 90.5551C1.9984 93.8572 0.565535 98.3183 0.0125 103.807C-0.138328 105.25 1.09343 106.519 2.75253 106.65C2.85309 106.65 2.9285 106.65 3.00391 106.65C4.56247 106.65 5.86964 105.622 5.99533 104.244C7.02598 93.9884 11.1235 88.7838 18.2124 88.7401C18.2375 88.7401 18.2626 88.7401 18.2878 88.7401C25.3264 88.7401 29.4742 93.9228 30.6305 104.135C30.7813 105.578 32.2645 106.628 33.9236 106.497C35.5827 106.366 36.7893 105.075 36.6385 103.632C36.0352 98.1433 34.552 93.7041 32.2393 90.4239Z" fill="white"/>
</svg>
