<svg width="30" height="31" viewBox="0 0 30 31" fill="none" xmlns="http://www.w3.org/2000/svg">
<path d="M21.75 28.3653C16.6466 28.3587 11.7541 26.3285 8.1455 22.7198C4.53686 19.1112 2.50661 14.2187 2.5 9.11532C2.5 7.59032 3.1058 6.12779 4.18414 5.04945C5.26247 3.97112 6.72501 3.36532 8.25 3.36532C8.57293 3.36286 8.89531 3.39216 9.2125 3.45282C9.51914 3.49819 9.82058 3.57355 10.1125 3.67782C10.3178 3.74985 10.5008 3.87423 10.6433 4.03866C10.7858 4.20308 10.8829 4.40185 10.925 4.61532L12.6375 12.1153C12.6837 12.3189 12.6781 12.5308 12.6213 12.7317C12.5646 12.9325 12.4584 13.116 12.3125 13.2653C12.15 13.4403 12.1375 13.4528 10.6 14.2528C11.8312 16.9539 13.9915 19.123 16.6875 20.3653C17.5 18.8153 17.5125 18.8028 17.6875 18.6403C17.8368 18.4944 18.0203 18.3883 18.2211 18.3315C18.422 18.2747 18.6339 18.2692 18.8375 18.3153L26.3375 20.0278C26.5441 20.0758 26.7352 20.1755 26.8926 20.3176C27.0501 20.4598 27.1687 20.6396 27.2375 20.8403C27.343 21.137 27.4225 21.4423 27.475 21.7528C27.5253 22.067 27.5504 22.3847 27.55 22.7028C27.527 24.2213 26.9041 25.669 25.8175 26.7299C24.7308 27.7908 23.2686 28.3787 21.75 28.3653Z" fill="white"/>
</svg>
