<svg width="84" height="84" viewBox="0 0 84 84" fill="none" xmlns="http://www.w3.org/2000/svg">
<path d="M78.5428 33.676H74.9679C74.1562 30.4638 72.8956 27.4071 71.1859 24.5748L73.7245 22.0362C74.7607 21 75.3306 19.6357 75.3306 18.1678C75.3306 16.6998 74.7607 15.3355 73.7245 14.2993L69.6834 10.2582C68.6472 9.22204 67.2829 8.65214 65.815 8.65214C64.347 8.65214 62.9827 9.22204 61.9465 10.2582L59.4252 12.8141C56.5757 11.1044 53.5362 9.84375 50.324 9.03207V5.45724C50.324 2.4523 47.8717 0 44.8668 0H39.1678C36.1628 0 33.7105 2.4523 33.7105 5.45724V9.03207C30.4984 9.84375 27.4416 11.1044 24.6094 12.8141L22.0707 10.2755C21.0345 9.23931 19.6702 8.66941 18.2023 8.66941C16.7344 8.66941 15.3701 9.23931 14.3339 10.2755L10.2755 14.3166C9.23931 15.3528 8.66941 16.7171 8.66941 18.185C8.66941 19.653 9.23931 21.0173 10.2755 22.0535L12.8141 24.5748C11.1044 27.4243 9.84375 30.4638 9.03207 33.676H5.45724C2.4523 33.676 0 36.1283 0 39.1332V44.8322C0 47.8372 2.4523 50.2895 5.45724 50.2895H9.03207C9.84375 53.5016 11.1044 56.5584 12.8141 59.3906L10.2755 61.9293C9.23931 62.9655 8.66941 64.3298 8.66941 65.7977C8.66941 67.2656 9.23931 68.6299 10.2755 69.6661L14.3166 73.7072C15.3528 74.7434 16.7171 75.3133 18.185 75.3133C19.653 75.3133 21.0173 74.7434 22.0535 73.7072L24.5921 71.1686C27.4416 72.8783 30.4811 74.139 33.6933 74.9507V78.5255C33.6933 81.5304 36.1456 83.9827 39.1505 83.9827H44.8495C47.8544 83.9827 50.3067 81.5304 50.3067 78.5255V74.9507C53.5189 74.139 56.5757 72.8783 59.4079 71.1686L61.9465 73.7072C62.9827 74.7434 64.347 75.3133 65.815 75.3133C67.2829 75.3133 68.6472 74.7434 69.6834 73.7072L73.7245 69.6661C74.7607 68.6299 75.3306 67.2656 75.3306 65.7977C75.3306 64.3298 74.7607 62.9655 73.7245 61.9293L71.1859 59.4252C72.8956 56.5757 74.1562 53.5362 74.9679 50.324H78.5428C81.5477 50.324 84 47.8717 84 44.8668V39.1678C84 36.1283 81.5477 33.676 78.5428 33.676ZM79.8553 44.8495C79.8553 45.5748 79.2681 46.162 78.5428 46.162H73.31C72.3257 46.162 71.4622 46.8528 71.2722 47.8372C70.5123 51.6883 69.0099 55.2977 66.8339 58.5617C66.2812 59.3906 66.3849 60.4786 67.0929 61.1867L70.8059 64.8997C71.0477 65.1414 71.1859 65.4868 71.1859 65.8322C71.1859 66.1776 71.0477 66.523 70.8059 66.7648L66.7648 70.8059C66.523 71.0477 66.1776 71.1859 65.8322 71.1859C65.4868 71.1859 65.1414 71.0477 64.8997 70.8059L61.1867 67.0929C60.4959 66.4021 59.3906 66.2812 58.5617 66.8339C55.2977 69.0271 51.6883 70.5123 47.8372 71.2722C46.8701 71.4622 46.162 72.3084 46.162 73.31V78.5428C46.162 79.2681 45.5748 79.8553 44.8495 79.8553H39.1505C38.4252 79.8553 37.838 79.2681 37.838 78.5428V73.31C37.838 72.3257 37.1472 71.4622 36.1628 71.2722C32.3117 70.5123 28.7023 69.0099 25.4383 66.8339C25.0929 66.5921 24.6785 66.4885 24.2812 66.4885C23.7459 66.4885 23.2105 66.6957 22.8133 67.0929L19.1003 70.8059C18.8586 71.0477 18.5132 71.1859 18.1678 71.1859C17.8224 71.1859 17.477 71.0477 17.2352 70.8059L13.1941 66.7648C12.9523 66.523 12.8141 66.1776 12.8141 65.8322C12.8141 65.4868 12.9523 65.1414 13.1941 64.8997L16.9071 61.1867C17.5979 60.4959 17.7188 59.3906 17.1661 58.5617C14.9729 55.2977 13.4877 51.6883 12.7278 47.8372C12.5378 46.8701 11.6916 46.162 10.69 46.162H5.45724C4.73191 46.162 4.14474 45.5748 4.14474 44.8495V39.1505C4.14474 38.4252 4.73191 37.838 5.45724 37.838H10.69C11.6743 37.838 12.5378 37.1472 12.7278 36.1628C13.4877 32.3117 14.9901 28.7023 17.1661 25.4383C17.7188 24.6094 17.6151 23.5214 16.9071 22.8133L13.1941 19.1003C12.9523 18.8586 12.8141 18.5132 12.8141 18.1678C12.8141 17.8224 12.9523 17.477 13.1941 17.2352L17.2352 13.1941C17.477 12.9523 17.8224 12.8141 18.1678 12.8141C18.5132 12.8141 18.8586 12.9523 19.1003 13.1941L22.8133 16.9071C23.5041 17.5979 24.6094 17.7187 25.4383 17.1661C28.7023 14.9729 32.3117 13.4877 36.1628 12.7278C37.1299 12.5378 37.838 11.6916 37.838 10.69V5.45724C37.838 4.73191 38.4252 4.14474 39.1505 4.14474H44.8495C45.5748 4.14474 46.162 4.73191 46.162 5.45724V10.69C46.162 11.6743 46.8528 12.5378 47.8372 12.7278C51.6883 13.4877 55.2977 14.9901 58.5617 17.1661C59.3906 17.7187 60.4786 17.6151 61.1867 16.9071L64.8997 13.1941C65.1414 12.9523 65.4868 12.8141 65.8322 12.8141C66.1776 12.8141 66.523 12.9523 66.7648 13.1941L70.8059 17.2352C71.0477 17.477 71.1859 17.8224 71.1859 18.1678C71.1859 18.5132 71.0477 18.8586 70.8059 19.1003L67.0929 22.8133C66.4021 23.5041 66.2812 24.6094 66.8339 25.4383C69.0271 28.7023 70.5123 32.3117 71.2722 36.1628C71.4622 37.1299 72.3084 37.838 73.31 37.838H78.5428C79.2681 37.838 79.8553 38.4252 79.8553 39.1505V44.8495Z" fill="white"/>
<path d="M54.1753 31.362C54.9352 30.4985 54.8489 29.2033 54.0026 28.4434C53.1392 27.6836 51.8439 27.7699 51.0841 28.6161C50.3242 29.4796 50.4105 30.7921 51.2568 31.5347C51.654 31.8801 52.1375 32.0528 52.6211 32.0528C53.191 32.0528 53.7609 31.811 54.1753 31.362Z" fill="white"/>
<path d="M48.5108 54.3478C47.4919 54.8832 47.1119 56.1439 47.6473 57.1455C48.01 57.8536 48.7353 58.2508 49.4779 58.2508C49.806 58.2508 50.1341 58.1817 50.445 58.009C51.4639 57.4736 51.8438 56.2129 51.3085 55.2113C50.7731 54.2096 49.5297 53.8124 48.5108 54.3478Z" fill="white"/>
<path d="M46.3172 24.402C45.212 24.1257 44.0894 24.8165 43.8131 25.9217C43.5368 27.027 44.2276 28.1495 45.3329 28.4258C45.5056 28.4604 45.661 28.4776 45.8337 28.4776C46.7663 28.4776 47.6125 27.8387 47.837 26.9061C48.1133 25.8008 47.4225 24.6783 46.3172 24.402Z" fill="white"/>
<path d="M27.6317 49.4086C26.6992 50.0648 26.4574 51.3601 27.1136 52.2926C27.5109 52.8798 28.1671 53.1907 28.8234 53.1907C29.2378 53.1907 29.635 53.0698 29.9977 52.828C30.9303 52.1717 31.172 50.8765 30.5158 49.944C29.8595 48.9941 28.5643 48.7523 27.6317 49.4086Z" fill="white"/>
<path d="M56.3858 49.3744C55.4359 48.7182 54.158 48.9599 53.5017 49.9098C52.8455 50.8596 53.0873 52.1376 54.0371 52.7938C54.3998 53.0356 54.8142 53.1565 55.2114 53.1565C55.8677 53.1565 56.5239 52.8456 56.9211 52.2585C57.5601 51.3259 57.3356 50.0307 56.3858 49.3744Z" fill="white"/>
<path d="M58.1645 41.8444C57.0247 41.7063 56.0058 42.5179 55.8676 43.6577C55.7295 44.7975 56.5411 45.8337 57.6809 45.9546C57.7673 45.9719 57.8536 45.9719 57.9227 45.9719C58.9589 45.9719 59.8569 45.1947 59.9778 44.1413C60.116 43.0188 59.3043 41.9826 58.1645 41.8444Z" fill="white"/>
<path d="M56.9902 38.3561C57.2319 38.3561 57.491 38.3043 57.7327 38.2179C58.8035 37.8035 59.3388 36.6119 58.9244 35.5411C58.5099 34.4704 57.3183 33.935 56.2476 34.3495C55.1768 34.764 54.6415 35.9556 55.0559 37.0263C55.3668 37.8553 56.1612 38.3561 56.9902 38.3561Z" fill="white"/>
<path d="M28.1323 43.6924C27.9941 42.5526 26.9579 41.7409 25.8181 41.8791C24.6783 42.0172 23.8667 43.0534 24.0048 44.1932C24.1257 45.2467 25.0237 46.0238 26.0599 46.0238C26.1463 46.0238 26.2326 46.0238 26.3017 46.0066C27.4588 45.8684 28.2704 44.8322 28.1323 43.6924Z" fill="white"/>
<path d="M26.2673 38.2525C26.509 38.3389 26.7508 38.3907 27.0099 38.3907C27.8388 38.3907 28.6332 37.8899 28.9441 37.0437C29.3585 35.9729 28.8059 34.7813 27.7352 34.3668C26.6645 33.9696 25.4729 34.505 25.0584 35.5757C24.6612 36.6637 25.1965 37.8553 26.2673 38.2525Z" fill="white"/>
<path d="M42.0344 55.9539C42.0171 55.9539 42.0171 55.9539 42.0344 55.9539C42.0171 55.9539 42.0171 55.9539 41.9999 55.9539C40.8601 55.9539 39.9275 56.8864 39.9275 58.0262C39.9275 59.166 40.8601 60.0986 41.9999 60.0986H42.0171H42.0344C43.1742 60.0986 44.1068 59.166 44.1068 58.0262C44.1068 56.8864 43.1742 55.9539 42.0344 55.9539Z" fill="white"/>
<path d="M40.152 25.9393C39.8757 24.834 38.7532 24.1433 37.6479 24.4196C36.5427 24.6959 35.8519 25.8184 36.1282 26.9237C36.3527 27.8735 37.2162 28.4952 38.1315 28.4952C38.2869 28.4952 38.4596 28.478 38.6323 28.4262C39.7548 28.1671 40.4284 27.0446 40.152 25.9393Z" fill="white"/>
<path d="M35.5066 54.3651C34.4877 53.8298 33.2443 54.227 32.7089 55.2286C32.1735 56.2475 32.5707 57.491 33.5724 58.0263C33.8832 58.1817 34.2114 58.2681 34.5395 58.2681C35.2821 58.2681 36.0074 57.8709 36.3701 57.1628C36.9227 56.1612 36.5255 54.9005 35.5066 54.3651Z" fill="white"/>
<path d="M32.8988 28.6333C32.139 27.7698 30.8265 27.7007 29.9803 28.4606C29.134 29.2205 29.0477 30.533 29.8076 31.3792C30.222 31.8455 30.7919 32.07 31.3618 32.07C31.8454 32.07 32.3462 31.8973 32.7434 31.5519C33.5896 30.792 33.676 29.4795 32.8988 28.6333Z" fill="white"/>
</svg>
