<svg width="74" height="59" viewBox="0 0 74 59" fill="none" xmlns="http://www.w3.org/2000/svg">
<path d="M72.1547 0H1.84539C0.830424 0 0 0.737671 0 1.63927V45.8585C0 46.7601 0.830424 47.4978 1.84539 47.4978H35.1546V55.7215H21.9755C20.9605 55.7215 20.1301 56.4591 20.1301 57.3607C20.1301 58.2623 20.9605 59 21.9755 59H52.0399C53.0549 59 53.8853 58.2623 53.8853 57.3607C53.8853 56.4591 53.0549 55.7215 52.0399 55.7215H38.8454V47.4978H72.1547C73.1696 47.4978 74 46.7601 74 45.8585V1.65293C74 0.737671 73.1696 0 72.1547 0ZM70.3093 44.2193H3.69078V3.2922H70.2939V44.2193H70.3093Z" fill="white"/>
<path fill-rule="evenodd" clip-rule="evenodd" d="M29 28.957C29 28.0845 29 12.6845 29 12.0738C29 11.2885 29.8726 10.7068 30.7312 11.1576C31.4209 11.5212 45.2424 18.9521 46.4247 19.5774C47.1988 19.9992 47.1847 20.988 46.4247 21.4097C45.5802 21.8751 31.7024 29.3351 30.7031 29.8586C29.9712 30.2367 29 29.8296 29 28.957Z" fill="white"/>
<path d="M55.2693 39.0146C55.2693 38.113 56.0997 37.3754 57.1147 37.3754C58.1297 37.3754 58.9601 38.113 58.9601 39.0146C58.9601 39.9162 58.1297 40.6539 57.1147 40.6539C56.0997 40.6539 55.2693 39.9162 55.2693 39.0146ZM46.0424 39.0146C46.0424 38.113 46.8728 37.3754 47.8878 37.3754C48.9027 37.3754 49.7331 38.113 49.7331 39.0146C49.7331 39.9162 48.9027 40.6539 47.8878 40.6539C46.8728 40.6539 46.0424 39.9162 46.0424 39.0146ZM36.8154 39.0146C36.8154 38.113 37.6459 37.3754 38.6608 37.3754C39.6758 37.3754 40.5062 38.113 40.5062 39.0146C40.5062 39.9162 39.6758 40.6539 38.6608 40.6539C37.6459 40.6539 36.8154 39.9162 36.8154 39.0146Z" fill="white"/>
<path d="M31.5715 40.6539H10.1957C9.18077 40.6539 8.35034 39.9162 8.35034 39.0146C8.35034 38.113 9.18077 37.3754 10.1957 37.3754H31.5715C32.5864 37.3754 33.4169 38.113 33.4169 39.0146C33.4169 39.9162 32.5864 40.6539 31.5715 40.6539Z" fill="white"/>
</svg>
